<svg width="9" height="14" viewBox="0 0 9 14" fill="none" xmlns="http://www.w3.org/2000/svg">
<path d="M8.28036 6.318L0.230359 0.0304965C0.209324 0.0139361 0.184044 0.00364457 0.157424 0.000803672C0.130803 -0.00203723 0.103922 0.00268774 0.0798656 0.014436C0.0558095 0.0261843 0.0355552 0.0444795 0.0214282 0.0672203C0.00730121 0.0899611 -0.000125379 0.116225 1.60148e-06 0.142997V1.52335C1.60148e-06 1.61085 0.0410731 1.69478 0.10893 1.74835L6.5375 6.768L0.10893 11.7876C0.0392874 11.8412 1.60148e-06 11.9251 1.60148e-06 12.0126V13.393C1.60148e-06 13.5126 0.137502 13.5787 0.230359 13.5055L8.28036 7.218C8.34878 7.16463 8.40413 7.09636 8.4422 7.01838C8.48027 6.9404 8.50005 6.85477 8.50005 6.768C8.50005 6.68122 8.48027 6.59559 8.4422 6.51761C8.40413 6.43964 8.34878 6.37137 8.28036 6.318Z" fill="#1890FF"/>
</svg>
